Coordinates
version=1
nRows=26
nColumns=24
inDegrees=yes

Units are S.I. units (second, meters, Newtons, ...)
Angles are in degrees.

endheader
time	pelvis_tilt	pelvis_list	pelvis_rotation	pelvis_tx	pelvis_ty	pelvis_tz	hip_flexion_r	hip_adduction_r	hip_rotation_r	knee_angle_r	ankle_angle_r	subtalar_angle_r	mtp_angle_r	hip_flexion_l	hip_adduction_l	hip_rotation_l	knee_angle_l	ankle_angle_l	subtalar_angle_l	mtp_angle_l	lumbar_extension	lumbar_bending	lumbar_rotation
      4.52000000	     -7.39305599	     -9.88023259	      1.44523337	     -0.94933752	     -0.01515081	      0.56905536	     12.74517833	     12.76617865	     -3.34867281	    -10.46065003	     -1.17081465	     -4.23658284	      3.09432226	     28.08720244	    -13.98486840	     -0.25440913	    -67.56228989	     -6.57216762	     18.19691161	     32.14388298	      5.00269117	      9.96761202	     -0.14519583
      4.52500000	     -7.38439377	     -9.57234757	      1.07708360	     -0.94283323	     -0.01420413	      0.56958339	     11.88312144	     12.56436560	     -2.88881039	     -9.82965416	     -1.02461154	     -3.94749818	      3.20246966	     28.76362643	    -13.75651689	     -0.69714894	    -67.01043611	     -6.43366718	     18.11636399	     31.90063637	      4.94332010	      9.66527242	      0.37966005
      4.53000000	     -7.36973181	     -9.26980473	      0.69139534	     -0.93634898	     -0.01335267	      0.57012842	     11.03527953	     12.35845377	     -2.42488619	     -9.22870148	     -0.87422059	     -3.65543041	      3.31438419	     29.40696686	    -13.55058475	     -1.16479931	    -66.39168089	     -6.29869526	     17.97561607	     31.59707966	      4.87315493	      9.36985068	      0.92827214
      4.53500000	     -7.35871072	     -8.97182350	      0.29849578	     -0.92989333	     -0.01260353	      0.57067504	     10.21418390	     12.14520817	     -1.96368020	     -8.65872094	     -0.71700136	     -3.36773081	      3.41953289	     30.03132372	    -13.35878052	     -1.64214744	    -65.70467605	     -6.16571143	     17.79109334	     31.24719491	      4.80679466	      9.07947564	      1.47381053
      4.54000000	     -7.34022868	     -8.68536934	     -0.10604810	     -0.92344901	     -0.01195110	      0.57123991	      9.40659880	     11.93467733	     -1.49721273	     -8.12133850	     -0.55480769	     -3.09130962	      3.51942614	     30.62084146	    -13.19452884	     -2.13224255	    -64.95272391	     -6.03027432	     17.57290422	     30.82697288	      4.72926071	      8.80479977	      2.03571788
      4.54500000	     -7.33637737	     -8.40413689	     -0.50937451	     -0.91702686	     -0.01141469	      0.57180145	      8.63848285	     11.71657330	     -1.03111882	     -7.61727018	     -0.37727354	     -2.82314742	      3.60307265	     31.20486264	    -13.04092844	     -2.62139812	    -64.13280512	     -5.89996042	     17.31384343	     30.38597498	      4.67009642	      8.53009314	      2.57450941
      4.55000000	     -7.27620775	     -8.16465215	     -0.92923609	     -0.91064119	     -0.01094610	      0.57237294	      7.82545091	     11.53479961	     -0.52927284	     -7.13503646	     -0.20281453	     -2.58377157	      3.68550041	     31.70421842	    -12.95012089	     -3.11022325	    -63.26825758	     -5.71448611	     17.11331493	     29.75699672	      4.53970494	      8.30766774	      3.16393771
      4.55500000	     -7.31502178	     -7.89259583	     -1.32091279	     -0.90423191	     -0.01063404	      0.57291138	      7.15163676	     11.30306363	     -0.09996567	     -6.70127330	     -0.00720383	     -2.35630130	      3.73734496	     32.28529243	    -12.80874660	     -3.58869739	    -62.30300990	     -5.61288622	     16.77785426	     29.28667555	      4.53568916	      8.04364329	      3.65205562
      4.56000000	     -7.31031128	     -7.65627689	     -1.73626407	     -0.89785790	     -0.01039633	      0.57345998	      6.44715846	     11.10070403	      0.36246257	     -6.29293825	      0.19843229	     -2.11829695	      3.78917538	     32.78909106	    -12.72651637	     -4.07471942	    -61.28115290	     -5.46989898	     16.48818433	     28.76089671	      4.47467594	      7.82191054	      4.19328521
      4.56500000	     -7.24631709	     -7.46701915	     -2.14270121	     -0.89151100	     -0.01022761	      0.57399923	      5.69009941	     10.93721869	      0.85374445	     -5.90028915	      0.40604064	     -1.92801853	      3.83138539	     33.20836694	    -12.69460892	     -4.52935108	    -60.21751961	     -5.25400124	     16.30769740	     28.01543319	      4.34314272	      7.64762035	      4.74796290
      4.57000000	     -7.25675952	     -7.26894963	     -2.52793120	     -0.88514431	     -0.01020890	      0.57449246	      5.03796639	     10.75269354	      1.28881459	     -5.54301259	      0.62934239	     -1.74004156	      3.87941825	     33.68232582	    -12.64050320	     -4.97063506	    -59.06669257	     -5.09280795	     16.04981902	     27.39156170	      4.30615432	      7.46464834	      5.22921399
      4.57500000	     -7.25687718	     -7.08738017	     -2.89717921	     -0.87878573	     -0.01027512	      0.57494525	      4.39259108	     10.57392960	      1.70194538	     -5.21156696	      0.86574460	     -1.56120247	      3.93843757	     34.11529941	    -12.59398785	     -5.38638564	    -57.83993337	     -4.92542473	     15.83275003	     26.78895280	      4.25824346	      7.29967230	      5.70144115
      4.58000000	     -7.31552610	     -6.90477879	     -3.20869680	     -0.87239351	     -0.01051014	      0.57533185	      3.82562346	     10.38257753	      2.07344461	     -4.89987206	      1.15553724	     -1.39369101	      4.00524264	     34.59381996	    -12.50753743	     -5.72662584	    -56.52640548	     -4.79195768	     15.64371774	     26.36094193	      4.29215137	      7.12338656	      6.06835018
      4.58500000	     -7.23318430	     -6.78087304	     -3.58378928	     -0.86606006	     -0.01066672	      0.57573443	      3.11927732	     10.24431332	      2.46718547	     -4.61235997	      1.37072371	     -1.22936604	      4.10331368	     34.86443402	    -12.52865239	     -6.14456656	    -55.16741873	     -4.56225411	     15.57536697	     25.61868718	      4.14297168	      7.02786705	      6.57858299
      4.59000000	     -7.25533388	     -6.64199664	     -3.89604446	     -0.85967757	     -0.01103706	      0.57604318	      2.54341087	     10.08080854	      2.81982148	     -4.35041063	      1.65500739	     -1.08112126	      4.20857594	     35.23026239	    -12.48455651	     -6.47668495	    -53.71895933	     -4.38272056	     15.52806801	     25.07783963	      4.13013141	      6.91052753	      6.96406164
      4.59500000	     -7.25558232	     -6.51947875	     -4.18716419	     -0.85328077	     -0.01146604	      0.57630673	      1.95794072	      9.92525958	      3.14375957	     -4.11159615	      1.94603035	     -0.93455805	      4.32279061	     35.53616157	    -12.44184131	     -6.78062005	    -52.19048172	     -4.19899657	     15.58052822	     24.58948364	      4.09643483	      6.80983200	      7.33815156
      4.60000000	     -7.29856677	     -6.40984577	     -4.42883225	     -0.84686589	     -0.01202554	      0.57651997	      1.44390819	      9.78281520	      3.40466076	     -3.91699367	      2.25483051	     -0.81966186	      4.41826575	     35.86204296	    -12.37472059	     -6.99943297	    -50.57316699	     -4.02989673	     15.75558633	     24.25679315	      4.11764935	      6.71166726	      7.60574981
      4.60500000	     -7.24144878	     -6.31801142	     -4.70385900	     -0.84046840	     -0.01256661	      0.57664299	      0.82060628	      9.63523924	      3.72556545	     -3.71918932	      2.58404705	     -0.66539377	      4.56267649	     36.03420635	    -12.33749270	     -7.27981814	    -48.91368791	     -3.83507247	     15.95611304	     23.77321041	      4.01008850	      6.65768975	      7.99664592
      4.61000000	     -7.30109241	     -6.24686402	     -4.87362661	     -0.83403894	     -0.01332963	      0.57668402	      0.35522097	      9.51994559	      3.93804672	     -3.57826123	      2.93499935	     -0.59072572	      4.65365304	     36.33205412	    -12.24568018	     -7.37788683	    -47.16997022	     -3.69096715	     16.32923167	     23.53328403	      4.05202402	      6.60698590	      8.18129222
      4.61500000	     -7.23514674	     -6.14455164	     -5.12161546	     -0.82753270	     -0.01397772	      0.57673735	     -0.24948377	      9.34928285	      4.22373902	     -3.43831941	      3.29096416	     -0.44583323	      4.79442265	     36.40221259	    -12.16988109	     -7.62823941	    -45.35160153	     -3.49881117	     16.72353344	     23.13626202	      3.95643333	      6.53701399	      8.54498117
      4.62000000	     -7.20442329	     -6.06402257	     -5.30885033	     -0.82106304	     -0.01475641	      0.57671283	     -0.78782643	      9.20258012	      4.46552767	     -3.34405842	      3.67311692	     -0.35194278	      4.92468553	     36.50359947	    -12.05644035	     -7.72473662	    -43.47924682	     -3.33888664	     17.23798633	     22.78101649	      3.89412355	      6.47897790	      8.79606901
      4.62500000	     -7.26396874	     -6.00303151	     -5.41371474	     -0.81456674	     -0.01572703	      0.57652591	     -1.20065003	      9.08077307	      4.64942093	     -3.30571106	      4.08313240	     -0.32328039	      5.01049413	     36.70554066	    -11.90653591	     -7.71451637	    -41.56394824	     -3.24058187	     17.83776890	     22.58152825	      3.94142760	      6.45374053	      8.91891144
      4.63000000	     -7.16170411	     -5.88751402	     -5.62178880	     -0.80806122	     -0.01650079	      0.57645513	     -1.77925229	      8.87932444	      4.91835362	     -3.28093480	      4.50771492	     -0.20807973	      5.13410712	     36.63312831	    -11.75654681	     -7.81930678	    -39.57458255	     -3.12601265	     18.46998471	     22.17840065	      3.79700411	      6.36073866	      9.23014919
      4.63500000	     -7.21961462	     -5.80877388	     -5.69974205	     -0.80144101	     -0.01758109	      0.57621334	     -2.17228934	      8.73621796	      5.08256065	     -3.29259489	      4.95128978	     -0.21030195	      5.20695369	     36.76210328	    -11.56141523	     -7.74629447	    -37.58111389	     -3.04427031	     19.14379743	     21.93255914	      3.86218291	      6.31051598	      9.31857352
      4.64000000	     -7.20100961	     -5.68119465	     -5.82495211	     -0.79481455	     -0.01857436	      0.57599037	     -2.62791246	      8.52673865	      5.29197756	     -3.33596084	      5.41303568	     -0.17474315	      5.28276923	     36.74294688	    -11.34052165	     -7.72231302	    -35.54195887	     -2.97917733	     19.82533949	     21.56631839	      3.83307879	      6.21204049	      9.49195935
      4.64500000	     -7.02359214	     -5.54002316	     -5.98923046	     -0.78828037	     -0.01940631	      0.57576543	     -3.22708344	      8.27959794	      5.53562270	     -3.42185264	      5.89606757	     -0.08927814	      5.34992869	     36.50633151	    -11.10574360	     -7.68107813	    -33.50693082	     -2.87806851	     20.44458894	     20.76015254	      3.60200397	      6.08947004	      9.77353186
